v -1.000000 -1.000000 1.000000
v 1.000000 -1.000000 1.000000
v -1.000000 1.000000 1.000000
v 1.000000 1.000000 1.000000
v -1.000000 1.000000 -1.000000
v 1.000000 1.000000 -1.000000
v -1.000000 -1.000000 -1.000000
v 1.000000 -1.000000 -1.000000

vn 0.0000 0.0000 1.0000
vn 0.0000 1.0000 0.0000
vn 0.0000 0.0000 -1.0000
vn 0.0000 -1.0000 0.0000
vn 1.0000 0.0000 0.0000
vn -1.0000 0.0000 0.0000

f 1//1 2//1 4//1
f 1//1 4//1 3//1
f 3//2 4//2 6//2
f 3//2 6//2 5//2
f 5//3 6//3 8//3
f 5//3 8//3 7//3
f 7//4 8//4 2//4
f 7//4 2//4 1//4
f 2//5 8//5 6//5
f 2//5 6//5 4//5
f 7//6 1//6 3//6
f 7//6 3//6 5//6